<?xml version="1.0" ?><svg id="Layer_1" style="enable-background:new 0 0 100.4 100.4;" version="1.1" viewBox="0 0 100.4 100.4" xml:space="preserve" xmlns="http://www.w3.org/2000/svg" xmlns:xlink="http://www.w3.org/1999/xlink"><g><path d="M20.4,19.3L32,24.4c-2.3,3.4-3.5,7.3-3.5,11.4c0,11.2,9.1,20.4,20.4,20.4s20.4-9.1,20.4-20.4c0-4-1.2-8-3.4-11.3l10.2-4.8   l0,19.4L73,45.7c-0.2,0.5-0.2,1,0.1,1.4s0.8,0.7,1.3,0.7h5.9c0.5,0,1-0.2,1.2-0.7c0.3-0.4,0.3-0.9,0.1-1.4l-2.7-6.6V18.4   c0-0.8-0.1-1.4-1.5-2C77.1,16.3,49.6,4.1,49.6,4.1c-0.4-0.2-0.8-0.2-1.2,0l-28,12.4c-0.5,0.2-0.9,0.8-0.9,1.4S19.8,19,20.4,19.3z    M66.2,35.8c0,9.6-7.8,17.4-17.4,17.4s-17.4-7.8-17.4-17.4c0-3.7,1.2-7.2,3.3-10.2l13.6,6.1c0.2,0.1,0.4,0.1,0.6,0.1s0.4,0,0.6-0.1   l13.4-6C65.1,28.7,66.2,32.2,66.2,35.8z M76.7,44.8l0.7-1.5l0.6,1.5H76.7z M49,7.1l24.3,10.8L49,28.7L24.7,17.9L49,7.1z"/><path d="M49.4,59.8C29.9,59.8,14,75.7,14,95.2c0,0.8,0.7,1.5,1.5,1.5h67.8c0.8,0,1.5-0.7,1.5-1.5C84.8,75.7,68.9,59.8,49.4,59.8z    M17.1,93.7c0.8-17.2,15-30.9,32.4-30.9S81,76.6,81.8,93.7H17.1z"/></g></svg>