<?xml version="1.0" encoding="iso-8859-1"?>
<!-- Generator: Adobe Illustrator 19.1.0, SVG Export Plug-In . SVG Version: 6.00 Build 0)  -->
<svg version="1.1" id="Capa_1" xmlns="http://www.w3.org/2000/svg" xmlns:xlink="http://www.w3.org/1999/xlink" x="0px" y="0px"
	 viewBox="0 0 437.702 437.702" style="enable-background:new 0 0 437.702 437.702;" xml:space="preserve">
<g>
	<g>
		<g>
			<path style="fill:#231F20;" d="M278.291,237.626H73.9c-6.264,0-11.399-5.135-11.399-11.399l0,0
				c0-6.264,5.135-11.399,11.399-11.399h204.39c6.264,0,11.399,5.135,11.399,11.399l0,0
				C289.69,232.509,284.555,237.626,278.291,237.626z"/>
			<path style="fill:#231F20;" d="M278.291,186.718H73.9c-6.264,0-11.399-5.135-11.399-11.399l0,0
				c0-6.264,5.135-11.399,11.399-11.399h204.39c6.264,0,11.399,5.135,11.399,11.399l0,0
				C289.69,181.583,284.555,186.718,278.291,186.718z"/>
			<path style="fill:#231F20;" d="M278.291,130.817H73.9c-6.264,0-11.399-5.135-11.399-11.399l0,0
				c0-6.264,5.135-11.399,11.399-11.399h204.39c6.264,0,11.399,5.135,11.399,11.399l0,0
				C289.69,125.682,284.555,130.817,278.291,130.817z"/>
		</g>
		<path style="fill:#231F20;" d="M79.618,379.568c-10.676,0-19.34-8.646-19.34-19.287v-46.055C24.951,304.309,0,272.053,0,234.891
			V105.83c0-45.508,37.021-82.529,82.511-82.529h190.133c45.508,0,82.511,37.021,82.511,82.529v129.043
			c0,45.508-37.021,82.529-82.511,82.529H154.929l-62.378,57.084C88.987,377.786,84.382,379.568,79.618,379.568z M82.511,40.965
			c-35.768,0-64.866,29.098-64.866,64.866v129.043c0,31.162,22.322,57.931,53.078,63.666l7.199,1.341v60.384
			c0,1.57,1.676,1.641,1.694,1.641c0.371,0,0.688-0.141,1.023-0.423l67.442-61.725h124.579c35.768,0,64.866-29.098,64.866-64.883
			V105.83c0-35.768-29.098-64.883-64.866-64.883H82.511V40.965z"/>
		<path style="fill:#231F20;" d="M366.696,76.821c0.106,1.659,0.494,3.229,0.494,4.923v12.776
			c30.033,5.664,52.849,32.009,52.849,63.666v129.061c0,35.115-28.092,63.648-62.96,64.689v0.071h-17.646v43.109
			c0,1.57-1.676,1.641-1.694,1.641c-0.371,0-0.688-0.141-1.023-0.423l-48.42-44.326l-12.476,0.124h-36.068
			c-20.734,0-39.05-9.864-50.837-25.075h-20.734c14.011,25.339,40.603,42.72,71.589,42.72h41.82l43.232,39.562
			c3.564,3.282,8.17,5.064,12.934,5.064c10.676,0,19.34-8.646,19.34-19.287v-25.551c44.591-1.041,80.606-37.48,80.606-82.335
			V158.185C437.685,116.612,406.716,82.485,366.696,76.821z"/>
	</g>
	<g>
	</g>
	<g>
	</g>
	<g>
	</g>
	<g>
	</g>
	<g>
	</g>
	<g>
	</g>
	<g>
	</g>
	<g>
	</g>
	<g>
	</g>
	<g>
	</g>
	<g>
	</g>
	<g>
	</g>
	<g>
	</g>
	<g>
	</g>
	<g>
	</g>
</g>
<g>
</g>
<g>
</g>
<g>
</g>
<g>
</g>
<g>
</g>
<g>
</g>
<g>
</g>
<g>
</g>
<g>
</g>
<g>
</g>
<g>
</g>
<g>
</g>
<g>
</g>
<g>
</g>
<g>
</g>
</svg>
